<svg width="16" height="16" viewBox="0 0 16 16" fill="none" xmlns="http://www.w3.org/2000/svg">
    <path d="M13.34 12.8413C13.2134 12.8413 13.0867 12.7946 12.9867 12.6946L9.68669 9.39463C9.49335 9.2013 9.49335 8.8813 9.68669 8.68797C9.88002 8.49464 10.2 8.49464 10.3934 8.68797L13.6933 11.988C13.8867 12.1813 13.8867 12.5013 13.6933 12.6946C13.5933 12.7946 13.4667 12.8413 13.34 12.8413Z" fill="black"/>
    <path d="M6.73997 12.2864C6.2533 12.2864 5.78663 12.0931 5.44663 11.7464L2.61996 8.91979C1.90663 8.20645 1.90663 7.03978 2.61996 6.32644L7.3333 1.61313C8.04663 0.899792 9.2133 0.899792 9.92663 1.61313L12.7533 4.43979C13.1 4.78645 13.2933 5.24645 13.2933 5.73312C13.2933 6.21979 13.1 6.68646 12.7533 7.02645L8.03996 11.7398C7.6933 12.0998 7.2333 12.2864 6.73997 12.2864ZM8.62663 2.07978C8.4133 2.07978 8.19996 2.15978 8.03996 2.32644L3.32664 7.03978C2.99997 7.36645 2.99997 7.89311 3.32664 8.21977L6.1533 11.0465C6.46663 11.3598 7.0133 11.3598 7.3333 11.0465L12.0466 6.33312C12.2066 6.17312 12.2933 5.96645 12.2933 5.74645C12.2933 5.52645 12.2066 5.31311 12.0466 5.15978L9.21997 2.33312C9.0533 2.15978 8.83997 2.07978 8.62663 2.07978Z" fill="black"/>
    <path d="M5.33331 14.5H1.33331C1.05998 14.5 0.833313 14.2733 0.833313 14C0.833313 13.7267 1.05998 13.5 1.33331 13.5H5.33331C5.60665 13.5 5.83331 13.7267 5.83331 14C5.83331 14.2733 5.60665 14.5 5.33331 14.5Z" fill="black"/>
    <path d="M9.08667 10.4929C8.96 10.4929 8.83334 10.4462 8.73334 10.3462L4.02 5.63292C3.82667 5.43958 3.82667 5.11958 4.02 4.92625C4.21333 4.73292 4.53333 4.73292 4.72667 4.92625L9.44 9.63957C9.63334 9.8329 9.63334 10.1529 9.44 10.3462C9.34667 10.4462 9.21334 10.4929 9.08667 10.4929Z" fill="black"/>
    </svg>
    