<svg width="16" height="16" viewBox="0 0 16 16" fill="none" xmlns="http://www.w3.org/2000/svg">
    <path d="M7.99998 15.1654C4.04665 15.1654 0.833313 11.952 0.833313 7.9987C0.833313 4.04536 4.04665 0.832031 7.99998 0.832031C11.9533 0.832031 15.1666 4.04536 15.1666 7.9987C15.1666 11.952 11.9533 15.1654 7.99998 15.1654ZM7.99998 1.83203C4.59998 1.83203 1.83331 4.5987 1.83331 7.9987C1.83331 11.3987 4.59998 14.1654 7.99998 14.1654C11.4 14.1654 14.1666 11.3987 14.1666 7.9987C14.1666 4.5987 11.4 1.83203 7.99998 1.83203Z" fill="black"/>
    <path d="M8 9.16536C7.72667 9.16536 7.5 8.9387 7.5 8.66536V5.33203C7.5 5.0587 7.72667 4.83203 8 4.83203C8.27333 4.83203 8.5 5.0587 8.5 5.33203V8.66536C8.5 8.9387 8.27333 9.16536 8 9.16536Z" fill="black"/>
    <path d="M7.99998 11.3339C7.91331 11.3339 7.82665 11.3139 7.74665 11.2806C7.66665 11.2472 7.59331 11.2006 7.52665 11.1406C7.46665 11.0739 7.41998 11.0072 7.38665 10.9206C7.35331 10.8406 7.33331 10.7539 7.33331 10.6672C7.33331 10.5806 7.35331 10.4939 7.38665 10.4139C7.41998 10.3339 7.46665 10.2606 7.52665 10.1939C7.59331 10.1339 7.66665 10.0872 7.74665 10.0539C7.90665 9.98724 8.09331 9.98724 8.25331 10.0539C8.33331 10.0872 8.40665 10.1339 8.47331 10.1939C8.53331 10.2606 8.57998 10.3339 8.61331 10.4139C8.64665 10.4939 8.66665 10.5806 8.66665 10.6672C8.66665 10.7539 8.64665 10.8406 8.61331 10.9206C8.57998 11.0072 8.53331 11.0739 8.47331 11.1406C8.40665 11.2006 8.33331 11.2472 8.25331 11.2806C8.17331 11.3139 8.08665 11.3339 7.99998 11.3339Z" fill="black"/>
    </svg>
    