<svg width="22" height="18" viewBox="0 0 22 18" fill="none" xmlns="http://www.w3.org/2000/svg">
    <path d="M21.08 8.03938H20.288L18.176 6.43138C18.032 6.31138 17.864 6.21538 17.72 6.11938V0.839375C17.72 0.575375 17.504 0.359375 17.24 0.359375H4.76C2.384 0.359375 0.440002 2.30338 0.440002 4.67938C0.440002 6.88738 2.12 8.73538 4.28 8.97538V17.1594C4.28 17.4234 4.496 17.6394 4.76 17.6394H21.08C21.344 17.6394 21.56 17.4234 21.56 17.1594V8.51937C21.56 8.25538 21.344 8.03938 21.08 8.03938ZM4.28 8.01538C2.648 7.77538 1.4 6.38338 1.4 4.67938C1.4 2.99938 2.648 1.58338 4.28 1.34338V8.01538ZM17.6 7.19938L18.704 8.03938H7.136L8.24 7.19938C11 5.08738 14.84 5.08738 17.6 7.19938ZM16.76 1.34338V5.54338C15.848 5.08737 14.864 4.79937 13.88 4.70337V4.67938C13.88 2.99938 15.128 1.58338 16.76 1.34338ZM5.24 1.31938H14.528C13.544 2.11138 12.92 3.31138 12.92 4.65538C11.072 4.65538 9.2 5.25537 7.664 6.43138L5.552 8.03938H5.24V1.31938ZM8.12 16.6794H5.24V8.99938H8.12V16.6794ZM20.6 16.6794H9.08V8.99938H20.6V16.6794ZM14.36 11.8794V10.9194C14.36 10.6554 14.576 10.4394 14.84 10.4394C15.104 10.4394 15.32 10.6554 15.32 10.9194V11.8794C15.32 12.1434 15.104 12.3594 14.84 12.3594C14.576 12.3594 14.36 12.1434 14.36 11.8794Z" fill="#8C8C8C"/>
    </svg>
    