<svg width="34" height="34" viewBox="0 0 34 34" fill="none" xmlns="http://www.w3.org/2000/svg">
    <path d="M20.683 21.7435L12.1977 13.2582C11.9078 12.9683 11.9078 12.4875 12.1977 12.1976C12.4876 11.9077 12.9684 11.9077 13.2584 12.1976L21.7436 20.6828C22.0336 20.9728 22.0336 21.4536 21.7436 21.7435C21.4537 22.0334 20.9729 22.0334 20.683 21.7435Z" fill="#8C8C8C"/>
    <path d="M12.1978 21.7435C11.9079 21.4536 11.9079 20.9728 12.1978 20.6828L20.683 12.1976C20.973 11.9077 21.4538 11.9077 21.7437 12.1976C22.0336 12.4875 22.0336 12.9683 21.7437 13.2582L13.2584 21.7435C12.9685 22.0334 12.4877 22.0334 12.1978 21.7435Z" fill="#8C8C8C"/>
    </svg>
    