<svg width="132" height="132" viewBox="0 0 132 132" fill="none" xmlns="http://www.w3.org/2000/svg">
    <path d="M5.37832 1.63973C7.87556 -1.35956 24.3574 1.63973 24.3574 1.63973C24.3574 1.63973 59.3189 -1.35972 70.3068 1.63973C81.2947 4.63919 99.2749 1.63973 99.2749 1.63973H130.241C130.241 1.63973 127.744 20.6361 130.241 27.1351C131.358 30.0426 127.634 46.6317 130.436 51.1309C133.238 55.6301 128.861 78.468 130.241 80.1255C132.738 83.1248 127.244 102.122 130.241 105.621C133.238 109.12 130.241 129.617 130.241 129.617L102.771 131.115C102.771 131.115 64.2942 132.097 61.8162 129.617C57.3211 125.117 34.8459 127.617 32.3486 129.617C29.8514 131.616 6.87664 127.117 2.38158 129.617C-2.11347 132.116 4.87883 107.621 2.38158 105.621C1.02543 104.535 -0.115664 68.6278 3.34934 66.1282C6.81434 63.6287 4.43557 35.6899 2.38158 33.6339C-2.11349 29.1346 2.88107 4.63903 5.37832 1.63973Z" fill="#242424"/>
    </svg>
    