<svg width="9" height="18" viewBox="0 0 9 18" fill="none" xmlns="http://www.w3.org/2000/svg">
    <path d="M0.909998 17.67C0.719998 17.67 0.529998 17.6 0.379998 17.45C0.0899985 17.16 0.0899985 16.68 0.379998 16.39L6.9 9.87002C7.38 9.39002 7.38 8.61002 6.9 8.13002L0.379998 1.61002C0.0899985 1.32002 0.0899985 0.84002 0.379998 0.55002C0.669998 0.26002 1.15 0.26002 1.44 0.55002L7.96 7.07002C8.47 7.58002 8.76 8.27002 8.76 9.00002C8.76 9.73002 8.48 10.42 7.96 10.93L1.44 17.45C1.29 17.59 1.1 17.67 0.909998 17.67Z" fill="white"/>
    </svg>
    