<svg width="26" height="41" viewBox="0 0 26 41" fill="none" xmlns="http://www.w3.org/2000/svg">
    <path d="M12.9228 0.306641C8.67275 0.306641 5.52275 1.60664 3.52275 3.60664C1.52275 5.60664 0.822754 8.10664 0.572754 10.0066L5.57275 10.6566C5.77275 9.40664 6.17275 8.15664 7.12275 7.20664C8.07275 6.25664 9.57275 5.30664 12.9228 5.30664C16.2228 5.30664 18.0228 6.10664 19.0228 7.00664C20.0228 7.90664 20.4228 9.00664 20.4228 10.3066C20.4228 14.4566 18.7228 15.6066 16.2228 17.8066C13.7228 20.0066 10.4228 23.2066 10.4228 29.0566V30.3066H15.4228V29.0566C15.4228 24.9066 16.9728 23.7566 19.4728 21.5566C21.9728 19.3566 25.4228 16.1566 25.4228 10.3066C25.4228 7.90664 24.5728 5.20664 22.4728 3.25664C20.3228 1.30664 17.1228 0.306641 12.9228 0.306641ZM10.4228 35.3066V40.3066H15.4228V35.3066H10.4228Z" fill="#3D3D3D"/>
    </svg>
    