<svg width="16" height="17" viewBox="0 0 16 17" fill="none" xmlns="http://www.w3.org/2000/svg">
    <path d="M7.99998 15.6107C4.04665 15.6107 0.833313 12.3973 0.833313 8.44401C0.833313 4.49068 4.04665 1.27734 7.99998 1.27734C11.9533 1.27734 15.1666 4.49068 15.1666 8.44401C15.1666 12.3973 11.9533 15.6107 7.99998 15.6107ZM7.99998 2.27734C4.59998 2.27734 1.83331 5.04401 1.83331 8.44401C1.83331 11.844 4.59998 14.6107 7.99998 14.6107C11.4 14.6107 14.1666 11.844 14.1666 8.44401C14.1666 5.04401 11.4 2.27734 7.99998 2.27734Z" fill="black"/>
    <path d="M10.4733 11.0665C10.3867 11.0665 10.3 11.0465 10.22 10.9931L8.15334 9.75979C7.64001 9.45312 7.26001 8.77979 7.26001 8.18646V5.45312C7.26001 5.17979 7.48668 4.95312 7.76001 4.95312C8.03334 4.95312 8.26001 5.17979 8.26001 5.45312V8.18646C8.26001 8.42646 8.46001 8.77979 8.66668 8.89979L10.7333 10.1331C10.9733 10.2731 11.0467 10.5798 10.9067 10.8198C10.8067 10.9798 10.64 11.0665 10.4733 11.0665Z" fill="black"/>
    </svg>
    