<svg width="16" height="16" viewBox="0 0 16 16" fill="none" xmlns="http://www.w3.org/2000/svg">
    <path d="M8 15.1654C4.04667 15.1654 0.833332 11.952 0.833332 7.9987C0.833332 4.04536 4.04667 0.832031 8 0.832031C11.9533 0.832031 15.1667 4.04536 15.1667 7.9987C15.1667 11.952 11.9533 15.1654 8 15.1654ZM8 1.83203C4.6 1.83203 1.83333 4.5987 1.83333 7.9987C1.83333 11.3987 4.6 14.1654 8 14.1654C11.4 14.1654 14.1667 11.3987 14.1667 7.9987C14.1667 4.5987 11.4 1.83203 8 1.83203Z" fill="#4652C1"/>
    <path d="M8 9.16536C7.72667 9.16536 7.5 8.9387 7.5 8.66536V5.33203C7.5 5.0587 7.72667 4.83203 8 4.83203C8.27333 4.83203 8.5 5.0587 8.5 5.33203V8.66536C8.5 8.9387 8.27333 9.16536 8 9.16536Z" fill="#4652C1"/>
    <path d="M8 11.3339C7.91333 11.3339 7.82667 11.3139 7.74667 11.2806C7.66667 11.2472 7.59333 11.2006 7.52667 11.1406C7.46667 11.0739 7.42 11.0072 7.38667 10.9206C7.35333 10.8406 7.33333 10.7539 7.33333 10.6672C7.33333 10.5806 7.35333 10.4939 7.38667 10.4139C7.42 10.3339 7.46667 10.2606 7.52667 10.1939C7.59333 10.1339 7.66667 10.0872 7.74667 10.0539C7.90667 9.98724 8.09333 9.98724 8.25333 10.0539C8.33333 10.0872 8.40667 10.1339 8.47333 10.1939C8.53333 10.2606 8.58 10.3339 8.61333 10.4139C8.64667 10.4939 8.66667 10.5806 8.66667 10.6672C8.66667 10.7539 8.64667 10.8406 8.61333 10.9206C8.58 11.0072 8.53333 11.0739 8.47333 11.1406C8.40667 11.2006 8.33333 11.2472 8.25333 11.2806C8.17333 11.3139 8.08667 11.3339 8 11.3339Z" fill="#4652C1"/>
    </svg>
    